<svg xmlns="http://www.w3.org/2000/svg" width="594.44" height="594" viewBox="0 0 594.44 594">
  <g id="blob-scene-haikei_1_" data-name="blob-scene-haikei(1)" transform="translate(755.44 -167)">
    <g id="Group_8" data-name="Group 8" transform="translate(-755.44 761)">
      <path id="Path_25" data-name="Path 25" d="M594.44-594c-70.252,72.9-140.5,145.7-235.674,186.1S143.606-359.6,79.659-297,7.806-117.2,0,0H594.44Z" fill="#c1c7d2"/>
      <path id="Path_26" data-name="Path 26" d="M475.2-475.2C419-416.9,362.9-358.6,286.8-326.3s-172,38.6-223.1,88.7C12.5-187.5,6.3-93.8,0,0H475.2Z" transform="translate(119.24)" fill="#939aa5"/>
      <path id="Path_27" data-name="Path 27" d="M356.4-356.4c-42.1,43.7-84.3,87.4-141.3,111.7-57,24.2-129,29-167.4,66.5C9.4-140.7,4.7-70.3,0,0H356.4Z" transform="translate(238.04)" fill="#696f7b"/>
      <path id="Path_28" data-name="Path 28" d="M237.6-237.6c-28.1,29.1-56.2,58.3-94.2,74.4-38,16.2-86,19.4-111.6,44.4C6.3-93.8,3.1-46.9,0,0H237.6Z" transform="translate(356.84)" fill="#414753"/>
      <path id="Path_29" data-name="Path 29" d="M118.8-118.8c-14,14.6-28.1,29.1-47.1,37.2s-43,9.7-55.8,22.2S1.6-23.4,0,0H118.8Z" transform="translate(475.64)" fill="#2e3440"/>
    </g>
  </g>
</svg>
