<svg xmlns="http://www.w3.org/2000/svg" width="594" height="594" viewBox="0 0 594 594">
  <g id="blob-scene-haikei" transform="translate(0 -486)">
    <g id="Group_6" data-name="Group 6" transform="translate(0 1080)">
      <path id="Path_15" data-name="Path 15" d="M0-594c120,6.2,240,12.5,297,79.6s51.1,195,90.1,290.9S510.1-63.8,594,0H0Z" fill="#c1c7d2"/>
      <path id="Path_16" data-name="Path 16" d="M0-475.2c96,5,192,10,237.6,63.7,45.6,53.6,40.9,156,72.1,232.7S408-51,475.2,0H0Z" fill="#939aa5"/>
      <path id="Path_17" data-name="Path 17" d="M0-356.4c72,3.7,144,7.5,178.2,47.7,34.2,40.3,30.7,117.1,54.1,174.6S306-38.3,356.4,0H0Z" fill="#696f7b"/>
      <path id="Path_18" data-name="Path 18" d="M0-237.6c48,2.5,96,5,118.8,31.8,22.8,26.9,20.4,78,36,116.4S204-25.5,237.6,0H0Z" fill="#414753"/>
      <path id="Path_19" data-name="Path 19" d="M0-118.8c24,1.2,48,2.5,59.4,15.9s10.2,39,18,58.2S102-12.8,118.8,0H0Z" fill="#2e3440"/>
    </g>
  </g>
</svg>
